<svg width="186" height="39" viewBox="0 0 186 39" fill="none" xmlns="http://www.w3.org/2000/svg">
<path d="M2.02273 31V7.72727H17.4318V11.7841H6.94318V17.3295H16.4091V21.3864H6.94318V31H2.02273ZM25.4091 31.3295C24.2955 31.3295 23.303 31.1364 22.4318 30.75C21.5606 30.3561 20.8712 29.7765 20.3636 29.0114C19.8636 28.2386 19.6136 27.2765 19.6136 26.125C19.6136 25.1553 19.7917 24.3409 20.1477 23.6818C20.5038 23.0227 20.9886 22.4924 21.6023 22.0909C22.2159 21.6894 22.9129 21.3864 23.6932 21.1818C24.4811 20.9773 25.3068 20.8333 26.1705 20.75C27.1856 20.6439 28.0038 20.5455 28.625 20.4545C29.2462 20.3561 29.697 20.2121 29.9773 20.0227C30.2576 19.8333 30.3977 19.553 30.3977 19.1818V19.1136C30.3977 18.3939 30.1705 17.8371 29.7159 17.4432C29.2689 17.0492 28.6326 16.8523 27.8068 16.8523C26.9356 16.8523 26.2424 17.0455 25.7273 17.4318C25.2121 17.8106 24.8712 18.2879 24.7045 18.8636L20.2273 18.5C20.4545 17.4394 20.9015 16.5227 21.5682 15.75C22.2348 14.9697 23.0947 14.3712 24.1477 13.9545C25.2083 13.5303 26.4356 13.3182 27.8295 13.3182C28.7992 13.3182 29.7273 13.4318 30.6136 13.6591C31.5076 13.8864 32.2992 14.2386 32.9886 14.7159C33.6856 15.1932 34.2348 15.8068 34.6364 16.5568C35.0379 17.2992 35.2386 18.1894 35.2386 19.2273V31H30.6477V28.5795H30.5114C30.2311 29.125 29.8561 29.6061 29.3864 30.0227C28.9167 30.4318 28.3523 30.7538 27.6932 30.9886C27.0341 31.2159 26.2727 31.3295 25.4091 31.3295ZM26.7955 27.9886C27.5076 27.9886 28.1364 27.8485 28.6818 27.5682C29.2273 27.2803 29.6553 26.8939 29.9659 26.4091C30.2765 25.9242 30.4318 25.375 30.4318 24.7614V22.9091C30.2803 23.0076 30.072 23.0985 29.8068 23.1818C29.5492 23.2576 29.2576 23.3295 28.9318 23.3977C28.6061 23.4583 28.2803 23.5152 27.9545 23.5682C27.6288 23.6136 27.3333 23.6553 27.0682 23.6932C26.5 23.7765 26.0038 23.9091 25.5795 24.0909C25.1553 24.2727 24.8258 24.5189 24.5909 24.8295C24.3561 25.1326 24.2386 25.5114 24.2386 25.9659C24.2386 26.625 24.4773 27.1288 24.9545 27.4773C25.4394 27.8182 26.053 27.9886 26.7955 27.9886ZM53.517 18.5227L49.0852 18.7955C49.0095 18.4167 48.8466 18.0758 48.5966 17.7727C48.3466 17.4621 48.017 17.2159 47.608 17.0341C47.2064 16.8447 46.7254 16.75 46.1648 16.75C45.4148 16.75 44.7822 16.9091 44.267 17.2273C43.7519 17.5379 43.4943 17.9545 43.4943 18.4773C43.4943 18.8939 43.661 19.2462 43.9943 19.5341C44.3277 19.822 44.8996 20.053 45.7102 20.2273L48.8693 20.8636C50.5663 21.2121 51.8314 21.7727 52.6648 22.5455C53.4981 23.3182 53.9148 24.3333 53.9148 25.5909C53.9148 26.7348 53.5777 27.7386 52.9034 28.6023C52.2367 29.4659 51.3201 30.1402 50.1534 30.625C48.9943 31.1023 47.6572 31.3409 46.142 31.3409C43.8314 31.3409 41.9905 30.8598 40.6193 29.8977C39.2557 28.928 38.4564 27.6098 38.2216 25.9432L42.983 25.6932C43.1269 26.3977 43.4754 26.9356 44.0284 27.3068C44.5814 27.6705 45.2898 27.8523 46.1534 27.8523C47.0019 27.8523 47.6837 27.6894 48.1989 27.3636C48.7216 27.0303 48.9867 26.6023 48.9943 26.0795C48.9867 25.6402 48.8011 25.2803 48.4375 25C48.0739 24.7121 47.5133 24.4924 46.7557 24.3409L43.733 23.7386C42.0284 23.3977 40.7595 22.8068 39.9261 21.9659C39.1004 21.125 38.6875 20.053 38.6875 18.75C38.6875 17.6288 38.9905 16.6629 39.5966 15.8523C40.2102 15.0417 41.0701 14.4167 42.1761 13.9773C43.2898 13.5379 44.5928 13.3182 46.0852 13.3182C48.2898 13.3182 50.0246 13.7841 51.2898 14.7159C52.5625 15.6477 53.3049 16.9167 53.517 18.5227ZM61.804 20.9091V31H56.9631V7.72727H61.6676V16.625H61.8722C62.2661 15.5947 62.9025 14.7879 63.7812 14.2045C64.66 13.6136 65.7623 13.3182 67.0881 13.3182C68.3002 13.3182 69.357 13.5833 70.2585 14.1136C71.1676 14.6364 71.8722 15.3902 72.3722 16.375C72.8797 17.3523 73.1297 18.5227 73.1222 19.8864V31H68.2812V20.75C68.2888 19.6742 68.0161 18.8371 67.4631 18.2386C66.9176 17.6402 66.1525 17.3409 65.1676 17.3409C64.5085 17.3409 63.9252 17.4811 63.4176 17.7614C62.9176 18.0417 62.5237 18.4508 62.2358 18.9886C61.9555 19.5189 61.8116 20.1591 61.804 20.9091ZM76.9318 31V13.5455H81.7727V31H76.9318ZM79.3636 11.2955C78.6439 11.2955 78.0265 11.0568 77.5114 10.5795C77.0038 10.0947 76.75 9.51515 76.75 8.84091C76.75 8.17424 77.0038 7.60227 77.5114 7.125C78.0265 6.64015 78.6439 6.39773 79.3636 6.39773C80.0833 6.39773 80.697 6.64015 81.2045 7.125C81.7197 7.60227 81.9773 8.17424 81.9773 8.84091C81.9773 9.51515 81.7197 10.0947 81.2045 10.5795C80.697 11.0568 80.0833 11.2955 79.3636 11.2955ZM93.5369 31.3409C91.7718 31.3409 90.2453 30.9659 88.9574 30.2159C87.6771 29.4583 86.6884 28.4053 85.9915 27.0568C85.2945 25.7008 84.946 24.1288 84.946 22.3409C84.946 20.5379 85.2945 18.9621 85.9915 17.6136C86.6884 16.2576 87.6771 15.2045 88.9574 14.4545C90.2453 13.697 91.7718 13.3182 93.5369 13.3182C95.3021 13.3182 96.8248 13.697 98.1051 14.4545C99.393 15.2045 100.385 16.2576 101.082 17.6136C101.779 18.9621 102.128 20.5379 102.128 22.3409C102.128 24.1288 101.779 25.7008 101.082 27.0568C100.385 28.4053 99.393 29.4583 98.1051 30.2159C96.8248 30.9659 95.3021 31.3409 93.5369 31.3409ZM93.5597 27.5909C94.3627 27.5909 95.0331 27.3636 95.571 26.9091C96.1089 26.447 96.5142 25.8182 96.7869 25.0227C97.0672 24.2273 97.2074 23.322 97.2074 22.3068C97.2074 21.2917 97.0672 20.3864 96.7869 19.5909C96.5142 18.7955 96.1089 18.1667 95.571 17.7045C95.0331 17.2424 94.3627 17.0114 93.5597 17.0114C92.7491 17.0114 92.0672 17.2424 91.5142 17.7045C90.9688 18.1667 90.5559 18.7955 90.2756 19.5909C90.0028 20.3864 89.8665 21.2917 89.8665 22.3068C89.8665 23.322 90.0028 24.2273 90.2756 25.0227C90.5559 25.8182 90.9688 26.447 91.5142 26.9091C92.0672 27.3636 92.7491 27.5909 93.5597 27.5909ZM110.116 20.9091V31H105.276V13.5455H109.889V16.625H110.094C110.48 15.6098 111.128 14.8068 112.037 14.2159C112.946 13.6174 114.048 13.3182 115.344 13.3182C116.556 13.3182 117.613 13.5833 118.514 14.1136C119.416 14.6439 120.116 15.4015 120.616 16.3864C121.116 17.3636 121.366 18.5303 121.366 19.8864V31H116.526V20.75C116.533 19.6818 116.26 18.8485 115.707 18.25C115.154 17.6439 114.393 17.3409 113.423 17.3409C112.772 17.3409 112.196 17.4811 111.696 17.7614C111.204 18.0417 110.817 18.4508 110.537 18.9886C110.264 19.5189 110.124 20.1591 110.116 20.9091Z" fill="white"/>
<path d="M141.705 31V7.72727H132.977C131.189 7.72727 129.689 8.03788 128.477 8.65909C127.258 9.2803 126.337 10.1515 125.716 11.2727C125.087 12.3864 124.773 13.6856 124.773 15.1705C124.773 16.6629 125.091 17.9583 125.727 19.0568C126.356 20.1477 127.284 20.9924 128.511 21.5909C129.739 22.1818 131.246 22.4773 133.034 22.4773H139.25V18.9773H133.602C132.557 18.9773 131.701 18.8333 131.034 18.5455C130.367 18.25 129.875 17.822 129.557 17.2614C129.231 16.6932 129.068 15.9962 129.068 15.1705C129.068 14.3447 129.231 13.6402 129.557 13.0568C129.883 12.4659 130.379 12.0189 131.045 11.7159C131.712 11.4053 132.572 11.25 133.625 11.25H137.489V31H141.705ZM129.682 20.4545L123.92 31H128.625L134.284 20.4545H129.682Z" fill="#FF0000"/>
<path d="M160.966 7.72727H165.182V22.9318C165.182 24.5985 164.788 26.0644 164 27.3295C163.22 28.5947 162.121 29.5833 160.705 30.2955C159.288 31 157.633 31.3523 155.739 31.3523C153.837 31.3523 152.178 31 150.761 30.2955C149.345 29.5833 148.246 28.5947 147.466 27.3295C146.686 26.0644 146.295 24.5985 146.295 22.9318V7.72727H150.511V22.5795C150.511 23.5492 150.723 24.4129 151.148 25.1705C151.58 25.928 152.186 26.5227 152.966 26.9545C153.746 27.3788 154.67 27.5909 155.739 27.5909C156.807 27.5909 157.731 27.3788 158.511 26.9545C159.299 26.5227 159.905 25.928 160.33 25.1705C160.754 24.4129 160.966 23.5492 160.966 22.5795V7.72727ZM183.378 18.1591L179.628 18.5682C179.522 18.1894 179.336 17.8333 179.071 17.5C178.813 17.1667 178.465 16.8977 178.026 16.6932C177.586 16.4886 177.048 16.3864 176.412 16.3864C175.556 16.3864 174.836 16.572 174.253 16.9432C173.677 17.3144 173.393 17.7955 173.401 18.3864C173.393 18.8939 173.579 19.3068 173.957 19.625C174.344 19.9432 174.98 20.2045 175.866 20.4091L178.844 21.0455C180.495 21.4015 181.723 21.9659 182.526 22.7386C183.336 23.5114 183.745 24.5227 183.753 25.7727C183.745 26.8712 183.423 27.8409 182.787 28.6818C182.158 29.5152 181.283 30.1667 180.162 30.6364C179.041 31.1061 177.753 31.3409 176.298 31.3409C174.162 31.3409 172.442 30.8939 171.139 30C169.836 29.0985 169.06 27.8447 168.81 26.2386L172.821 25.8523C173.003 26.6402 173.389 27.2348 173.98 27.6364C174.571 28.0379 175.34 28.2386 176.287 28.2386C177.264 28.2386 178.048 28.0379 178.639 27.6364C179.238 27.2348 179.537 26.7386 179.537 26.1477C179.537 25.6477 179.344 25.2348 178.957 24.9091C178.579 24.5833 177.988 24.3333 177.185 24.1591L174.207 23.5341C172.533 23.1856 171.295 22.5985 170.491 21.7727C169.688 20.9394 169.291 19.8864 169.298 18.6136C169.291 17.5379 169.582 16.6061 170.173 15.8182C170.772 15.0227 171.601 14.4091 172.662 13.9773C173.73 13.5379 174.961 13.3182 176.355 13.3182C178.401 13.3182 180.01 13.7538 181.185 14.625C182.366 15.4962 183.098 16.6742 183.378 18.1591Z" fill="white"/>
</svg>
